<svg width="64" height="64" xmlns="http://www.w3.org/2000/svg">

 <g>
  <title>background</title>
  <rect fill="none" id="canvas_background" height="402" width="582" y="-1" x="-1"/>
 </g>
 <g>
  <title>Layer 1</title>
  <path id="svg_2" fill="#bf005f" d="m17.07,21l1.055,0l0.251,1.758c0.068,0.546 0.569,0.931 1.114,1.009l1.52,0.154c0.216,0.031 0.484,0.015 0.764,0.015c0.428,0 0.881,-0.051 1.207,-0.116l0.539,-0.115c0.539,-0.108 1.09,-0.387 1.223,-0.92l0.507,-1.785c0,0 0.094,-0.5 0.75,-0.5s0.75,0.5 0.75,0.5l0.508,1.78c0.133,0.533 0.684,0.933 1.223,1.041l0.539,0.045c0.326,0.065 0.779,0.069 1.207,0.069c0.279,0 0.549,-0.03 0.764,-0.062l1.52,-0.225c0.545,-0.078 1.046,-0.342 1.114,-0.888l0.25,-1.76l1.115,0c0.007,0.475 0.01,0.967 0.01,1.5c0,0 1,-3.188 1,-8c0,-2.916 -0.5,-7 -4,-7c-1.458,-1.708 -3.946,-2 -7,-2c-7.5,0 -9,4.5 -9,9c0,4.971 1,8 1,8c0,-0.557 0.029,-1.041 0.07,-1.5zm7.702,-0.651l-0.515,2.061c-0.087,0.347 -0.486,0.727 -0.836,0.797l-0.54,0.107c-0.282,0.057 -0.696,0.091 -1.108,0.091c-0.264,0 -0.51,-0.015 -0.692,-0.041l-1.521,-0.217c-0.32,-0.046 -0.648,-0.38 -0.688,-0.701l-0.252,-2.016c-0.034,-0.273 0.167,-0.537 0.44,-0.576l1.521,-0.217c0.262,-0.038 0.631,-0.06 1.013,-0.06c0.319,0 0.617,0.016 0.836,0.043l2.016,0.252c0.121,0.015 0.22,0.071 0.279,0.159c0.06,0.087 0.077,0.2 0.047,0.318zm8.356,2.096c-0.04,0.321 -0.369,0.655 -0.688,0.701l-1.521,0.217c-0.183,0.026 -0.429,0.041 -0.692,0.041c-0.412,0 -0.826,-0.034 -1.109,-0.091l-0.538,-0.107c-0.352,-0.07 -0.75,-0.45 -0.836,-0.797l-0.516,-2.061c-0.029,-0.117 -0.013,-0.23 0.048,-0.317c0.06,-0.088 0.159,-0.145 0.279,-0.159l2.016,-0.252c0.22,-0.027 0.517,-0.043 0.836,-0.043c0.382,0 0.751,0.021 1.014,0.06l1.519,0.217c0.273,0.039 0.476,0.303 0.441,0.576l-0.253,2.015zm0.67,-2.445c-0.131,-0.328 -0.417,-0.589 -0.788,-0.642l-1.52,-0.217c-0.296,-0.042 -0.694,-0.064 -1.084,-0.064c-0.328,0 -0.649,0.016 -0.898,0.047l-2.016,0.252c-0.375,0.047 -0.639,0.301 -0.731,0.624l-1.521,0c-0.093,-0.323 -0.356,-0.577 -0.731,-0.624l-2.016,-0.252c-0.25,-0.031 -0.57,-0.047 -0.898,-0.047c-0.39,0 -0.787,0.022 -1.084,0.064l-1.52,0.217c-0.371,0.053 -0.657,0.313 -0.789,0.642l-1.012,0c0.222,-1.455 0.588,-2.648 0.811,-4.5c0.115,-0.951 0.209,-1.269 0.486,-1.269c0.555,0 1.848,1.269 5.514,1.269c4.36,0 6.676,-2.635 8.072,-2.635c0.365,0 0.668,0.181 0.928,0.635c1.475,2.58 1.859,4.35 1.961,6.5l-1.164,0zm-8.798,-13.5c2.9,0 5.071,0.28 6.239,1.649l0.3,0.351l0.461,0c0.742,0 3,0 3,6c0,0.264 -0.003,0.523 -0.009,0.777c-0.286,-0.703 -0.652,-1.45 -1.123,-2.273c-0.538,-0.941 -1.273,-1.139 -1.796,-1.139c-0.762,0 -1.489,0.4 -2.41,0.908c-1.396,0.77 -3.135,1.727 -5.662,1.727c-2.418,0 -3.668,-0.584 -4.414,-0.932c-0.404,-0.188 -0.723,-0.337 -1.1,-0.337l0,0c-1.207,0 -1.373,1.267 -1.477,2.123c-0.005,-0.278 -0.009,-0.562 -0.009,-0.854c0,-5.533 2.467,-8 8,-8z"/>
  <path id="svg_3" fill="#bf005f" d="m34.53,26.873c0.237,-0.796 0.397,-1.597 0.442,-2.379c0.01,0.001 0.018,0.006 0.028,0.006c0.55,0 1,-0.45 1,-1l0,-1c0,0.55 -0.45,1.5 -1,1.5c-0.001,0 -0.329,0 -0.885,0c-0.077,0.134 -0.132,0.279 -0.141,0.437c-0.059,1.009 -0.306,2.028 -0.681,3.009c0.399,-0.216 0.813,-0.403 1.237,-0.573z"/>
  <path id="svg_4" fill="#bf005f" d="m46.493,40.959c-0.272,-1.634 -1.811,-3.223 -3.435,-3.547l-4.558,-0.912l0,-0.5l-6.5,-2l0,-1.645c-0.384,0.476 -0.718,0.992 -1,1.54l0,2.823c-0.154,0.226 -0.474,0.623 -0.987,1.024c-0.002,0.087 -0.013,0.171 -0.013,0.258c0,0.313 0.017,0.624 0.048,0.93c0.237,-0.146 0.456,-0.298 0.646,-0.45l-0.453,1.554c0.134,0.575 0.321,1.128 0.559,1.655l1.877,-6.435l4.824,1.484l0,1.585l-1.871,0.748l-1.408,0.563l1.072,1.072l1.362,1.362l-2.729,3.358c0.277,0.189 0.565,0.363 0.864,0.521l3.209,-3.947l-2,-2l2.5,-1l0,-1.48l4.363,0.873c1.205,0.241 2.441,1.517 2.644,2.73l0.253,1.521c0.05,0.297 0.084,0.713 0.104,1.164c0.333,-0.393 0.629,-0.816 0.892,-1.263c-0.004,-0.021 -0.006,-0.047 -0.009,-0.066c-0.141,-0.839 -0.254,-1.52 -0.254,-1.52z"/>
  <path id="svg_5" fill="#bf005f" d="m39,50c-0.147,0 -0.291,-0.017 -0.438,-0.022l-12.562,7.843l-0.567,-0.354l7.446,-9.164c-0.289,-0.172 -0.57,-0.354 -0.843,-0.549l-4.689,5.772l2.329,-7.987c-0.266,-0.328 -0.511,-0.673 -0.741,-1.028l-2.947,10.105l-4.688,-16.144c0.94,0.759 2.448,1.528 4.701,1.528c0.417,0 0.8,-0.033 1.167,-0.081c-0.053,-0.326 -0.096,-0.655 -0.121,-0.989c-0.326,0.043 -0.672,0.07 -1.046,0.07c-3.182,0 -4.613,-1.712 -5.001,-2.28l0,-4.07c1.488,1.42 3.24,2.35 5,2.35c0.485,0 0.97,-0.077 1.449,-0.209c0.113,-0.408 0.245,-0.808 0.399,-1.197c-0.616,0.256 -1.239,0.406 -1.848,0.406c-3.607,0 -7.707,-4.916 -7.975,-9.563c-0.009,-0.157 -0.063,-0.303 -0.141,-0.437c-0.555,0 -0.883,0 -0.885,0c-0.55,0 -1,-0.95 -1,-1.5l0,1c0,0.55 0.45,1 1,1c0.01,0 0.018,-0.005 0.027,-0.006c0.141,2.44 1.302,5.074 2.973,7.094l0,2.412l-6.5,2l0,0.501l-4.559,0.911c-1.625,0.324 -3.162,1.913 -3.435,3.547l-0.253,1.521c-0.141,0.84 -0.18,2.413 -0.088,3.514l20.836,13.006l14.609,-9.121c-0.528,0.071 -1.062,0.121 -1.609,0.121zm-24.5,-13.262l4.823,-1.483l5.251,18.081l-9.227,-11.269l1.359,-1.36l1.072,-1.072l-1.408,-0.563l-1.87,-0.749l0,-1.585zm-8.367,8.679c-0.042,-0.959 0,-2.132 0.107,-2.773l0.253,-1.521c0.206,-1.235 1.417,-2.485 2.645,-2.73l4.362,-0.873l0,1.48l2.5,1l-2,2l11.552,14.108l-0.354,1.212l-19.065,-11.903z"/>
  <path id="svg_7" fill="#bf005f" d="m58.293,54.293l-8.586,-8.586c-0.194,-0.194 -0.451,-0.291 -0.707,-0.291c-0.159,0 -0.313,0.051 -0.458,0.126l-0.836,-0.836c1.433,-1.857 2.294,-4.179 2.294,-6.706c0,-6.075 -4.925,-11 -11,-11s-11,4.925 -11,11s4.925,11 11,11c2.527,0 4.849,-0.861 6.706,-2.294l0.836,0.836c-0.196,0.377 -0.15,0.85 0.165,1.165l8.586,8.586c0.194,0.194 0.451,0.291 0.707,0.291s0.513,-0.097 0.707,-0.291l1.586,-1.586c0.389,-0.389 0.389,-1.025 0,-1.414zm-29.293,-16.293c0,-5.522 4.478,-10 10,-10s10,4.478 10,10s-4.478,10 -10,10s-10,-4.478 -10,-10zm18.058,7.472l0.735,0.735l-0.586,0.586l-0.735,-0.735c0.202,-0.189 0.397,-0.384 0.586,-0.586zm8.942,11.114l-8.586,-8.586l1.583,-1.584c0,0 0.001,0 0.003,0l0,-0.002l8.586,8.586l-1.586,1.586z"/>
 </g>
</svg>