<svg width="117" height="117" xmlns="http://www.w3.org/2000/svg">
 <title/>
 <desc/>

 <g>
  <title>background</title>
  <rect fill="none" id="canvas_background" height="402" width="582" y="-1" x="-1"/>
 </g>
 <g>
  <title>Layer 1</title>
  <path id="Shape" fill="#4A4A4A" d="m58.5,116.6c32,0 58.1,-26 58.1,-58.1c0,-32.1 -26.1,-58.1 -58.1,-58.1c-32,0 -58.1,26.1 -58.1,58.1c0,32 26.1,58.1 58.1,58.1zm0,-108c27.5,0 49.9,22.4 49.9,49.9c0,27.5 -22.4,49.9 -49.9,49.9c-27.5,0 -49.9,-22.4 -49.9,-49.9c0,-27.5 22.4,-49.9 49.9,-49.9z"/>
  <path id="Shape" fill="#bf0000" d="m36.7,79.7c0.8,0.8 1.8,1.2 2.9,1.2c1.1,0 2.1,-0.4 2.9,-1.2l16,-16l16,16c0.8,0.8 1.8,1.2 2.9,1.2c1.1,0 2.1,-0.4 2.9,-1.2c1.6,-1.6 1.6,-4.2 0,-5.8l-16,-16l16,-16c1.6,-1.6 1.6,-4.2 0,-5.8c-1.6,-1.6 -4.2,-1.6 -5.8,0l-16,16l-16,-16c-1.6,-1.6 -4.2,-1.6 -5.8,0c-1.6,1.6 -1.6,4.2 0,5.8l16,16l-16,16c-1.6,1.6 -1.6,4.2 0,5.8z"/>
 </g>
</svg>