<svg width="40" height="40" xmlns="http://www.w3.org/2000/svg">

 <g>
  <title>background</title>
  <rect fill="none" id="canvas_background" height="42" width="42" y="-1" x="-1"/>
 </g>
 <g>
  <title>Layer 1</title>
  <polygon id="svg_2" fill="#4E4E50" points="36.063453674316406,6.609948635101318 4.063451766967773,6.609948635101318 4.063451766967773,2.6099488735198975 36.063453674316406,2.6099488735198975 36.063453674316406,6.609948635101318 "/>
  <polygon id="svg_3" fill="#4E4E50" points="24.063450813293457,14.67340087890625 4.063451766967773,14.67340087890625 4.063451766967773,10.67340087890625 24.063450813293457,10.67340087890625 24.063450813293457,14.67340087890625 "/>
  <polygon stroke="null" id="svg_4" fill="#4E4E50" points="36.06345319747925,22.69594955444336 4.063451766967773,22.69594955444336 4.063451766967773,18.69594955444336 36.06345319747925,18.69594955444336 36.06345319747925,22.69594955444336 "/>
  <circle id="svg_5" fill="#4E4E50" r="2" cy="32.609949" cx="6.239146"/>
  <path id="svg_6" fill="#4E4E50" d="m16.239146,32.609949c0,1.105 -0.898,2 -2,2c-1.109,0 -2.004,-0.895 -2.004,-2s0.895,-2 2.004,-2c1.102,0 2,0.895 2,2z"/>
  <circle id="svg_7" fill="#4E4E50" r="2" cy="32.609949" cx="22.239146"/>
 </g>
</svg>