<?xml version="1.0" ?><svg id="Layer_1" style="enable-background:new 0 0 64 64;" version="1.1" viewBox="0 0 64 64" xml:space="preserve" xmlns="http://www.w3.org/2000/svg" xmlns:xlink="http://www.w3.org/1999/xlink"><style type="text/css">
	.st0{fill:#62BEE7;}
	.st1{fill:#474E5E;}
	.st2{fill:#F3EEE4;}
	.st3{fill:#FFFFFF;}
	.st4{fill:#E8DCCA;}
	.st5{opacity:0.1;fill:#231F20;}
	.st6{fill:#506268;}
	.st7{fill:#EB5151;}
	.st8{fill:#C64444;}
	.st9{fill:#9CCB5B;}
	.st10{fill:#404A4C;}
	.st11{fill:#676767;}
	.st12{fill:#E0E1E5;}
	.st13{fill:#9D9EA0;}
	.st14{fill:#B3B4B7;}
	.st15{opacity:0.1;}
	.st16{fill:#231F20;}
	.st17{fill:#FACC20;}
	.st18{fill:#FDEF34;}
	.st19{fill:#F7A90B;}
	.st20{fill:#20B8EA;}
	.st21{fill:#00A8EA;}
	.st22{fill:#33D3F4;}
	.st23{opacity:0.25;fill:#FFFFFF;}
	.st24{fill:#CACBCE;}
	.st25{fill:#2E3545;}
	.st26{fill:#8DAF4A;}
	.st27{fill:#F9C2AF;}
	.st28{fill:#AFDDF4;}
	.st29{fill:#677177;}
	.st30{fill:#FFEDB3;}
	.st31{fill:#695652;}
	.st32{fill:#30A7BF;}
	.st33{fill:#4D5556;}
	.st34{opacity:0.35;}
	.st35{fill:#FFCB04;}
	.st36{fill:#99E9FA;}
	.st37{opacity:0.2;}
	.st38{opacity:3.000000e-02;}
	.st39{fill:#9ECA5B;}
	.st40{fill:#98BA56;}
	.st41{fill:#40EEFF;}
	.st42{fill:#FF6A52;}
	.st43{opacity:0.1;fill:#FFFFFF;}
	.st44{opacity:0.4;}
	.st45{fill:#57606D;}
	.st46{fill:#BACA5B;}
	.st47{opacity:0.25;}
	.st48{opacity:5.000000e-02;fill:#231F20;}
	.st49{opacity:0.2;fill:#FFFFFF;}
	.st50{opacity:0.3;}
	.st51{fill:#FFD82F;}
	.st52{fill:#F4C121;}
	.st53{fill:#EF9D0A;}
	.st54{fill:#F9E532;}
	.st55{fill:#F4C01E;}
	.st56{fill:#FFE14D;}
	.st57{fill:#B7C156;}
	.st58{fill:#DBA92C;}
	.st59{fill:#363D4D;}
	.st60{fill:#3F4656;}
	.st61{fill:#463E33;}
	.st62{fill:none;}
	.st63{opacity:4.000000e-02;}
	.st64{fill:#4DB6AC;}
	.st65{fill:#CADE49;}
	.st66{fill:#9FD343;}
	.st67{fill:#AAD643;}
	.st68{fill:#82C736;}
	.st69{opacity:0.3;fill:#FFFFFF;}
	.st70{fill:#FFD640;}
	.st71{opacity:0.5;}
	.st72{opacity:0.6;}
</style><g><circle class="st7" cx="32" cy="32" r="32"/><g><path class="st3" d="M45.6,34.5L45.6,34.5c-0.8,2-2.6,3.4-4.8,3.7l-8.8,1.3l2.2,6.9l0,0c0.6,1.8-0.7,3.6-2.5,3.6H13.6V9.7H46v22.5    C46,33,45.9,33.7,45.6,34.5z"/><path class="st14" d="M40.8,38.2l-8.8,1.3l2.2,6.9c0.3,0.8,0.2,1.7-0.3,2.4L44,36.7l0,0C43.2,37.5,42,38,40.8,38.2z"/><g><path class="st12" d="M46,14v18.2c0,0.8-0.1,1.5-0.4,2.3c-0.3,0.9-0.9,1.6-1.6,2.2l0,0L34,48.8c-0.5,0.7-1.3,1.2-2.2,1.2H18v4.3     h32.4V14H46z"/></g><g><rect class="st12" height="1.6" width="24.2" x="16.1" y="28.8"/><rect class="st12" height="1.6" width="24.2" x="16.1" y="32.1"/><rect class="st12" height="1.6" width="24.2" x="16.1" y="35.4"/><g><rect class="st12" height="1.6" width="13.7" x="16.1" y="38.6"/><rect class="st12" height="1.6" width="13.7" x="16.1" y="41.9"/></g><g><rect class="st12" height="1.6" width="13.7" x="16.1" y="45.2"/></g></g><g><path class="st17" d="M35.1,24.6c-1.3,1.2-3.1,1.9-5,1.9c-1.9,0-3.7-0.7-5-1.9l1.8-1.8c0.9,0.7,2,1.2,3.2,1.2s2.3-0.4,3.2-1.2     L35.1,24.6z"/><path class="st4" d="M37.6,19h-2.5c0-1.2-0.4-2.3-1.2-3.2C33,14.7,31.6,14,30.1,14v-2.5c2.2,0,4.2,1,5.6,2.5     C36.9,15.3,37.6,17.1,37.6,19z"/><path class="st2" d="M30.1,14v-2.5c-2.1,0-4,0.8-5.3,2.2c-0.1,0.1-0.2,0.2-0.3,0.3l1.8,1.8C27.2,14.7,28.5,14,30.1,14z"/><path class="st21" d="M24.7,25c-1.7-1.5-2.7-3.7-2.7-6c0-2,0.7-3.9,2-5.3l0.3-0.4l2.5,2.5l-0.3,0.3c-0.7,0.8-1.1,1.8-1.1,2.9     c0,1.3,0.6,2.6,1.6,3.5l0.4,0.3l-2.5,2.5L24.7,25z"/><path class="st42" d="M37.6,19h-2.5c0,1.5-0.7,2.9-1.8,3.8l1.8,1.8C36.6,23.3,37.6,21.3,37.6,19z"/></g></g></g></svg>