<svg width="512" height="512" xmlns="http://www.w3.org/2000/svg">

 <g>
  <title>background</title>
  <rect fill="none" id="canvas_background" height="402" width="582" y="-1" x="-1"/>
 </g>
 <g>
  <title>Layer 1</title>
  <path fill="#007f3f" id="rect3044-174-4-7-5-8-7-1-1-3" d="m148.38099,182.645267c-5.0617,0 -9.6363,2.1426 -12.8205,5.5607c-0.2399,0.2572 -0.4708,0.5394 -0.695,0.8109l-61.4374,61.4374c-0.222,0.2002 -0.4427,0.404 -0.6564,0.6178l0,0.076c-0.4182,0.4194 -0.908,0.7869 -1.2743,1.2356c-0.7586,0.9246 -1.391,1.9101 -1.9308,2.9348c-0.2674,0.5071 -0.5197,1.0189 -0.7337,1.5447l0,0.039c-0.206,0.5108 -0.3848,0.9816 -0.5406,1.5059l0,0.1161c-0.1541,0.524 -0.244,1.011 -0.3475,1.5447c-0.2205,1.1157 -0.3476,2.2266 -0.3476,3.3595c0.02,3.8894 1.2921,7.85062 3.9002,11.04402c0.3738,0.4582 0.8466,0.8852 1.2743,1.3129l62.0938,62.0553c0.1788,0.2154 0.3525,0.4496 0.5406,0.6564l0.1544,0.1544c3.184,3.4178 7.7589,5.5607 12.8205,5.5607c9.6755,0 17.4542,-7.8561 17.4542,-17.5314l0,-27.7646c0.1977,0 0.3798,0.039 0.5792,0.039l96.7319,0l5.0973,0l96.732,0c0.1995,0 0.4199,-0.033 0.6179,-0.039l0,27.7646c0,9.6753 7.7787,17.5314 17.4542,17.5314c5.0617,0 9.5976,-2.1426 12.7816,-5.5607c0.2399,-0.2571 0.4708,-0.5392 0.6952,-0.8108l61.4759,-61.3987c0.222,-0.2002 0.4427,-0.4428 0.6565,-0.6566l0,-0.076c0.4181,-0.4194 0.8695,-0.7868 1.2357,-1.2356c0.7586,-0.9246 1.4296,-1.91 1.9693,-2.9348c0.2674,-0.50702 0.4811,-1.01882 0.6951,-1.54462l0,-0.039c0.206,-0.5109 0.3848,-0.9818 0.5407,-1.5061l0,-0.1162c0.154,-0.5239 0.2825,-1.0109 0.3861,-1.5446c0.2204,-1.1157 0.3476,-2.2266 0.3476,-3.3596c-0.02,-3.8893 -1.3307,-7.8507 -3.9388,-11.044c-0.3738,-0.4582 -0.808,-0.8851 -1.2357,-1.313l-62.1324,-62.0551c-0.1789,-0.2153 -0.3527,-0.4498 -0.5406,-0.6566l-0.1546,-0.1544c-3.1839,-3.4178 -7.72,-5.5606 -12.7816,-5.5606c-9.6755,0 -17.4542,7.856 -17.4542,17.5315l0,27.7646c-0.1978,0 -0.4185,-0.039 -0.6179,-0.039l-96.732,0l-5.0973,0l-96.7319,0c-0.1995,0 -0.3813,0.033 -0.5792,0.039l0,-27.7646c0,-9.6755 -7.7787,-17.5315 -17.4542,-17.5315l0,0.0002z"/>
 </g>
</svg>