<svg width="48.00000000000001" height="48.00000000000001" xmlns="http://www.w3.org/2000/svg">

 <g>
  <title>background</title>
  <rect fill="none" id="canvas_background" height="402" width="582" y="-1" x="-1"/>
 </g>
 <g>
  <title>Layer 1</title>
  <path id="svg_1" fill="none" d="m0,0l48,0l0,48l-48,0l0,-48z"/>
  <path fill="#007f3f" id="svg_2" d="m31,24c0,-2.21 -1.79,-4 -4,-4s-4,1.79 -4,4s1.79,4 4,4s4,-1.79 4,-4zm-4,-18c-9.94,0 -18,8.06 -18,18l-6,0l8,8l8,-8l-6,0c0,-7.73 6.27,-14 14,-14s14,6.27 14,14s-6.27,14 -14,14c-3.03,0 -5.82,-0.97 -8.12,-2.61l-2.83,2.87c3.04,2.34 6.83,3.74 10.95,3.74c9.94,0 18,-8.06 18,-18s-8.06,-18 -18,-18z"/>
 </g>
</svg>