<svg width="124.99999999999999" height="124.99999999999999" xmlns="http://www.w3.org/2000/svg">
 <title/>
 <desc/>

 <g>
  <title>background</title>
  <rect fill="none" id="canvas_background" height="127" width="127" y="-1" x="-1"/>
 </g>
 <g>
  <title>Layer 1</title>
  <path id="Shape" fill="#17AB13" d="m35.439528,60.923154c-1.6,-1.6 -4.2,-1.6 -5.8,0c-1.6,1.6 -1.6,4.2 0,5.8l18.9,18.9c0.8,0.8 1.8,1.2 2.9,1.2c0.1,0 0.1,0 0.2,0c1.1,-0.1 2.2,-0.6 3,-1.5l47.3,-56.7c1.4,-1.7 1.2,-4.3 -0.5,-5.8c-1.7,-1.4 -4.3,-1.2 -5.8,0.5l-44.5,53.3l-15.7,-15.7z"/>
  <path stroke="null" id="Shape" fill="#4A4A4A" d="m92.335274,14.84103c-22.401194,-13.945306 -51.13316,-10.652664 -69.833287,7.941077c-22.011608,21.886383 -22.011608,57.621229 0,79.507611c11.005804,10.943191 25.517882,16.463208 39.932563,16.463208c14.414681,0 28.926759,-5.520017 39.932563,-16.463208c18.797524,-18.690583 22.011608,-47.355934 7.889116,-69.629686c-1.168758,-1.840006 -3.60367,-2.42106 -5.454204,-1.258951c-1.850533,1.162109 -2.434912,3.583169 -1.266154,5.423174c12.174562,19.174795 9.350064,43.772765 -6.817755,59.848604c-18.89492,18.787426 -49.769609,18.787426 -68.664529,0c-18.89492,-18.787426 -18.89492,-49.486467 0,-68.273893c16.167818,-15.978996 40.809131,-18.787426 60.093637,-6.87581c1.850533,1.162109 4.285446,0.581054 5.454204,-1.258951c1.168758,-1.840006 0.584379,-4.261066 -1.266154,-5.423174z"/>
 </g>
</svg>