<?xml version="1.0"?>
<svg width="48" height="48" xmlns="http://www.w3.org/2000/svg" xmlns:svg="http://www.w3.org/2000/svg">
 <g class="layer">
  <title>Layer 1</title>
  <g id="Icons" transform="rotate(45 24 24)">
   <g id="svg_1">
    <path d="m10.307102,30.374849l12.715533,0l2.07318,0l12.597068,0c0.019753,-0.115379 0.019753,-0.249997 0.019753,-0.365376c0,-0.70159 -0.146051,-1.400868 -0.428777,-2.04623c-0.274977,-0.627692 -0.676643,-1.201155 -1.174291,-1.681415c-0.401275,-0.387257 -0.858248,-0.695414 -1.354252,-0.955517c-0.47603,-0.249634 -1.036972,-0.346353 -1.543216,-0.541129c-1.445622,-0.556206 -2.849264,-1.390118 -3.837303,-2.575701c-0.480998,-0.577161 -0.389271,-1.133235 -0.389271,-1.831985c0,-0.461121 0,-0.922226 0,-1.383348c0,-0.568475 0,-1.136934 0,-1.705409c0,-0.631358 0,-1.262717 0,-1.894075c0,-0.649771 0,-1.299542 0,-1.949313c0,-0.623713 0,-1.247409 0,-1.871122c0,-0.553167 0,-1.106351 0,-1.659518c0,-0.438168 0,-0.876335 0,-1.314487c0,-0.319172 0.000339,-0.638327 -0.001407,-0.957482c-0.001102,-0.202554 0.16421,-0.391154 0.276486,-0.553646c0.131164,-0.189806 0.274265,-0.371817 0.428522,-0.544382c0.305666,-0.34196 0.65533,-0.646551 1.039905,-0.902179c0.297646,-0.197864 0.614401,-0.367771 0.942837,-0.511966c0.286964,-0.125998 0.598005,-0.181384 0.901772,-0.254456c0.298986,-0.071916 0.573115,-0.193174 0.81581,-0.38047c0.324622,-0.250509 0.577913,-0.586161 0.723879,-0.963824c0.095152,-0.246215 0.143999,-0.50868 0.143999,-0.771739c0,-1.211509 -1.026714,-2.21148 -2.270622,-2.21148l-3.001181,0l-10.069746,0l-2.922222,0c-1.230039,0.000017 -2.270605,1.013397 -2.270622,2.21148c0,0.878796 0.574064,1.693916 1.404998,2.029915c0.149442,0.060423 0.305818,0.104613 0.465332,0.13115c0.455294,0.075747 0.870032,0.282248 1.266001,0.512346c0.380556,0.221148 0.735426,0.484125 1.052214,0.786122c0.219534,0.209291 0.420231,0.437193 0.600328,0.679561c0.155919,0.20982 0.407294,0.488468 0.405582,0.757538c-0.002815,0.440298 -0.001628,0.880645 -0.001628,1.320976c0,0.482804 0,0.965607 0,1.448411c0,0.583849 0,1.167682 0,1.751531c0,0.639401 0,1.278785 0,1.918185c0,0.649457 0,1.298914 0,1.948372c0,0.614036 0,1.228072 0,1.842108c0,0.53312 0,1.06624 0,1.59936c0,0.406726 0,0.813452 0,1.220162c0,0.437788 0.050441,0.81796 -0.222586,1.194104c-1.028782,1.417316 -2.705892,2.465903 -4.377915,3.013505c-0.947737,0.249997 -1.777009,0.730753 -2.448328,1.365348c-0.96749,0.961512 -1.579567,2.288416 -1.579567,3.730684c0,0.115396 0,0.250014 0.019736,0.365393z" fill="#E52046" id="svg_2"/>
    <polyline fill="none" id="svg_3" points="23.022634506225586,30.374845325946808 23.022634506225586,35.278598606586456 23.022634506225586,41.68230038881302 24.069103240966797,47.451400578022 25.095815658569336,41.68230038881302 25.095815658569336,35.278598606586456 25.095815658569336,30.374845325946808 " stroke="#303030" stroke-linecap="round" stroke-linejoin="round" stroke-miterlimit="10" stroke-width="0.7"/>
    <path d="m10.307102,30.374849l12.715533,0l2.07318,0l12.597068,0c0.019753,-0.115379 0.019753,-0.249997 0.019753,-0.365376c0,-0.70159 -0.146051,-1.400868 -0.428777,-2.04623c-0.274977,-0.627692 -0.676643,-1.201155 -1.174291,-1.681415c-0.401275,-0.387257 -0.858248,-0.695414 -1.354252,-0.955517c-0.47603,-0.249634 -1.036972,-0.346353 -1.543216,-0.541129c-1.445622,-0.556206 -2.849264,-1.390118 -3.837303,-2.575701c-0.480998,-0.577161 -0.389271,-1.133235 -0.389271,-1.831985c0,-0.461121 0,-0.922226 0,-1.383348c0,-0.568475 0,-1.136934 0,-1.705409c0,-0.631358 0,-1.262717 0,-1.894075c0,-0.649771 0,-1.299542 0,-1.949313c0,-0.623713 0,-1.247409 0,-1.871122c0,-0.553167 0,-1.106351 0,-1.659518c0,-0.438168 0,-0.876335 0,-1.314487c0,-0.319172 0.000339,-0.638327 -0.001407,-0.957482c-0.001102,-0.202554 0.16421,-0.391154 0.276486,-0.553646c0.131164,-0.189806 0.274265,-0.371817 0.428522,-0.544382c0.305666,-0.34196 0.65533,-0.646551 1.039905,-0.902179c0.297646,-0.197864 0.614401,-0.367771 0.942837,-0.511966c0.286964,-0.125998 0.598005,-0.181384 0.901772,-0.254456c0.298986,-0.071916 0.573115,-0.193174 0.81581,-0.38047c0.324622,-0.250509 0.577913,-0.586161 0.723879,-0.963824c0.095152,-0.246215 0.143999,-0.50868 0.143999,-0.771739c0,-1.211509 -1.026714,-2.21148 -2.270622,-2.21148l-3.001181,0l-10.069746,0l-2.922222,0c-1.230039,0.000017 -2.270605,1.013397 -2.270622,2.21148c0,0.878796 0.574064,1.693916 1.404998,2.029915c0.149442,0.060423 0.305818,0.104613 0.465332,0.13115c0.455294,0.075747 0.870032,0.282248 1.266001,0.512346c0.380556,0.221148 0.735426,0.484125 1.052214,0.786122c0.219534,0.209291 0.420231,0.437193 0.600328,0.679561c0.155919,0.20982 0.407294,0.488468 0.405582,0.757538c-0.002815,0.440298 -0.001628,0.880645 -0.001628,1.320976c0,0.482804 0,0.965607 0,1.448411c0,0.583849 0,1.167682 0,1.751531c0,0.639401 0,1.278785 0,1.918185c0,0.649457 0,1.298914 0,1.948372c0,0.614036 0,1.228072 0,1.842108c0,0.53312 0,1.06624 0,1.59936c0,0.406726 0,0.813452 0,1.220162c0,0.437788 0.050441,0.81796 -0.222586,1.194104c-1.028782,1.417316 -2.705892,2.465903 -4.377915,3.013505c-0.947737,0.249997 -1.777009,0.730753 -2.448328,1.365348c-0.96749,0.961512 -1.579567,2.288416 -1.579567,3.730684c0,0.115396 0,0.250014 0.019736,0.365393z" fill="none" id="svg_4" stroke="#303030" stroke-linecap="round" stroke-linejoin="round" stroke-miterlimit="10" stroke-width="0.7"/>
    <line fill="none" id="svg_5" stroke="#303030" stroke-linecap="round" stroke-linejoin="round" stroke-miterlimit="10" stroke-width="0.7" x1="15.357319" x2="32.618775" y1="4.864701" y2="4.864701"/>
    <path d="m21.625639,27.976338c0.144762,0 5.609446,0 5.609446,0" fill="none" id="svg_6" stroke="#303030" stroke-linecap="round" stroke-linejoin="round" stroke-miterlimit="10" stroke-width="0.7"/>
    <path d="m29.876955,27.976338c0.108563,0 1.51997,0 1.51997,0" fill="none" id="svg_7" stroke="#303030" stroke-linecap="round" stroke-linejoin="round" stroke-miterlimit="10" stroke-width="0.7"/>
   </g>
  </g>
 </g>
</svg>